HIERARCHY
ROOT hip
{
	OFFSET 0.000000 0.000000 0.000000 
	CHANNELS 6 Xposition Yposition Zposition Xrotation Zrotation Yrotation
	JOINT abdomen
	{
		OFFSET 0.000000 3.402643 0.000000 
		CHANNELS 3 Xrotation Zrotation Yrotation
		JOINT chest
		{
			OFFSET 0.000000 8.438565 -0.680529 
			CHANNELS 3 Xrotation Zrotation Yrotation
			JOINT neck
			{
				OFFSET 0.000000 10.207942 -0.272212 
				CHANNELS 3 Xrotation Zrotation Yrotation
				JOINT head
				{
					OFFSET 0.000000 3.130431 0.000000 
					CHANNELS 3 Xrotation Zrotation Yrotation
					End Site
					{
						OFFSET 0.000000 3.130435 0.000000 
					}
				}
			}
			JOINT lCollar
			{
				OFFSET 3.470700 6.669187 -0.816635 
				CHANNELS 3 Yrotation Zrotation Xrotation
				JOINT lShldr
				{
					OFFSET 3.198488 0.000000 0.000000 
					CHANNELS 3 Zrotation Yrotation Xrotation
					JOINT lForeArm
					{
						OFFSET 10.139888 0.000000 0.000000 
						CHANNELS 3 Yrotation Zrotation Xrotation
						JOINT lHand
						{
							OFFSET 8.370511 0.000000 0.000000 
							CHANNELS 3 Zrotation Yrotation Xrotation
							End Site
							{
								OFFSET 4.083176 0.000000 0.000000 
							}
						}
					}
				}
			}
			JOINT rCollar
			{
				OFFSET -3.470700 6.669187 -0.816635 
				CHANNELS 3 Yrotation Zrotation Xrotation
				JOINT rShldr
				{
					OFFSET -3.198488 0.000000 0.000000 
					CHANNELS 3 Zrotation Yrotation Xrotation
					JOINT rForeArm
					{
						OFFSET -10.139888 0.000000 0.000000 
						CHANNELS 3 Yrotation Zrotation Xrotation
						JOINT rHand
						{
							OFFSET -8.370511 0.000000 0.000000 
							CHANNELS 3 Zrotation Yrotation Xrotation
							End Site
							{
								OFFSET -4.083176 0.000000 0.000000 
							}
						}
					}
				}
			}
		}
	}
	JOINT lThigh
	{
		OFFSET 5.308129 -1.633274 1.361059 
		CHANNELS 3 Xrotation Zrotation Yrotation
		JOINT lShin
		{
			OFFSET -2.041588 -20.007561 0.000000 
			CHANNELS 3 Xrotation Zrotation Yrotation
			JOINT lFoot
			{
				OFFSET 0.000000 -19.190928 -1.224953 
				CHANNELS 3 Xrotation Yrotation Zrotation
				End Site
				{
					OFFSET 0.000000 -2.449906 4.627600 
				}
			}
		}
	}
	JOINT rThigh
	{
		OFFSET -5.308129 -1.633274 1.361059 
		CHANNELS 3 Xrotation Zrotation Yrotation
		JOINT rShin
		{
			OFFSET 2.041588 -20.007561 0.000000 
			CHANNELS 3 Xrotation Zrotation Yrotation
			JOINT rFoot
			{
				OFFSET 0.000000 -19.190928 -1.224953 
				CHANNELS 3 Xrotation Yrotation Zrotation
				End Site
				{
					OFFSET 0.000000 -2.449906 4.627600 
				}
			}
		}
	}
}
MOTION
Frames: 19
Frame Time: 0.033333
-6.975033 48.638302 5.927825 -30.458982 23.134766 -171.207092 61.408569 -13.430783 -15.909583 -16.591797 4.169922 -7.733664 51.063168 8.107644 2.471410 -79.775391 -17.412107 48.681644 2.000000 -2.000000 0.000000 -62.656250 -32.666016 -50.630268 -70.972466 -1.152650 -2.540627 -59.754383 50.624310 -96.973900 -2.000000 2.000000 0.000000 63.466793 -7.275390 23.388672 121.310158 -1.739052 -2.942948 40.992657 -61.198898 -43.783672 -70.328239 38.598351 22.205185 41.328648 -4.016346 -3.548085 -4.781934 1.240407 0.509348 -38.628479 -10.845362 -30.722523 15.957403 5.029403 0.880961 6.844374 -8.128783 29.308544 
-7.064667 48.654053 5.860824 -30.488281 23.281252 -170.923874 61.550278 -13.227650 -15.920994 -16.591797 4.169922 -7.909446 51.063168 8.107644 2.471410 -80.146484 -17.324219 48.964844 2.000000 -2.000000 0.000000 -61.904301 -32.832031 -51.318356 -70.961441 -1.071824 -2.496437 -60.666107 50.036304 -97.434219 -2.000000 2.000000 0.000000 63.984379 -6.503906 22.996943 121.304764 -1.739777 -3.099441 41.028038 -61.396515 -43.943203 -70.328247 38.598339 22.205189 41.506310 -4.016356 -3.533499 -5.066492 1.369318 0.770292 -38.435825 -10.828465 -31.099737 15.601077 4.988754 1.478776 6.846985 -8.011340 29.343540 
-7.179808 48.669815 5.778583 -30.712889 23.398439 -170.904327 61.732262 -13.202795 -15.932531 -16.591797 4.335938 -7.870355 51.063168 8.107644 2.471410 -80.146484 -17.324219 48.964844 2.000000 -2.000000 0.000000 -61.298832 -33.222656 -52.597656 -71.139572 -0.891120 -2.585177 -60.663521 50.486984 -96.999794 -2.000000 2.000000 0.000000 64.501953 -5.839844 22.861326 121.310387 -1.485343 -3.270258 41.182995 -61.579708 -44.130695 -70.481911 38.165298 22.155905 41.648170 -3.742752 -3.621184 -5.493670 1.132000 0.481925 -38.239460 -10.964067 -31.253567 15.253732 4.980220 1.477956 7.074135 -8.111821 29.699766 
-7.294933 48.669815 5.696343 -30.712889 23.398439 -170.728546 61.739868 -13.103647 -16.088314 -16.582031 4.511719 -8.007044 51.063168 8.107644 2.471410 -80.273438 -17.128906 48.922905 2.000000 -2.000000 0.000000 -60.917965 -33.222660 -53.794415 -71.317894 -1.062515 -2.672989 -61.232525 50.488361 -97.021713 -2.000000 2.000000 0.000000 65.156250 -5.625000 23.222656 121.309883 -1.739616 -2.933203 41.044346 -61.877708 -44.354233 -70.494888 37.993881 22.296230 42.011841 -3.664822 -3.477109 -6.064067 0.953366 0.622933 -38.071636 -11.001061 -30.746241 14.900222 5.038431 0.968784 7.053372 -7.919285 29.796894 
-7.408963 48.701317 5.594233 -30.947262 23.496096 -170.523453 61.912086 -13.078794 -16.097647 -16.406250 4.511719 -8.163295 51.063168 8.107644 2.471410 -80.273438 -17.128906 48.922905 2.000000 -2.000000 0.000000 -60.341797 -33.515621 -54.257813 -71.317894 -1.062515 -2.672989 -60.737083 50.716373 -96.574966 -2.000000 2.000000 0.000000 65.478516 -5.478516 23.680712 121.134117 -1.729867 -2.932639 40.923771 -61.941154 -44.083050 -70.737083 37.884003 21.943707 41.988766 -3.840457 -3.557782 -6.016349 1.393860 0.528950 -37.691570 -10.953079 -31.311920 14.543365 4.997174 1.227199 7.194556 -8.024065 29.927299 
-7.522989 48.709206 5.492124 -30.986328 23.662111 -170.513672 62.092575 -12.963978 -16.268402 -16.396486 4.687500 -8.125000 51.063168 8.107644 2.471410 -80.234375 -16.972654 48.847656 2.000000 -2.000000 0.000000 -59.902344 -33.505859 -54.556175 -71.494217 -1.053897 -2.693226 -60.632820 50.926376 -96.700012 -2.000000 2.000000 0.000000 65.488274 -5.439453 23.886721 121.134117 -1.729867 -2.932639 39.221096 -62.182636 -42.788120 -70.779327 37.741684 21.886522 42.165951 -3.850276 -3.536824 -6.307774 1.258009 0.867326 -37.504829 -10.951699 -31.330523 14.203004 5.007426 1.385057 7.186894 -7.668384 30.275223 
-7.646506 48.724957 5.352581 -30.986328 23.662111 -170.337875 62.092575 -12.963978 -16.268402 -16.230469 4.501954 -8.339844 51.063168 8.107644 2.471410 -80.146484 -16.669920 48.847656 2.000000 -2.000000 0.000000 -59.511719 -33.203125 -54.556126 -71.494217 -1.053897 -2.693226 -59.748207 51.231628 -96.072044 -2.000000 2.000000 0.000000 65.966797 -5.703125 24.414061 121.309883 -1.739616 -2.933203 39.221096 -62.182636 -42.788120 -70.613464 37.546593 21.924309 42.373997 -3.821080 -3.543474 -6.700961 1.226981 0.912583 -37.152451 -11.146125 -30.773239 13.844145 5.067287 0.874586 7.541849 -8.205356 30.833574 
-7.770010 48.764347 5.213026 -31.210936 23.769531 -170.308563 62.129936 -13.049067 -16.434443 -16.054688 4.502156 -8.670783 51.063168 8.107644 2.471410 -79.892578 -16.406248 48.583984 2.000000 -2.000000 0.000000 -59.238277 -33.076176 -54.429161 -71.317894 -1.062515 -2.672989 -59.146030 51.552277 -95.531517 -2.000000 2.000000 0.000000 66.660156 -5.791016 24.853516 121.309883 -1.739616 -2.933203 39.384228 -62.081612 -43.400288 -70.671631 37.243374 21.794704 42.560371 -3.954777 -3.607611 -6.882947 1.473121 0.651608 -36.802109 -10.932559 -31.399124 13.306959 5.027842 1.127963 7.746188 -8.070477 30.681664 
-7.879503 48.811619 4.953193 -31.269531 23.896484 -170.039063 62.129936 -13.049067 -16.434443 -16.054688 4.502156 -8.670783 51.063168 8.107644 2.471410 -79.853516 -16.259766 48.681644 2.000000 -2.000000 0.000000 -59.355473 -33.730465 -55.117184 -71.315361 -0.881370 -2.585744 -60.094471 51.603092 -95.064522 -2.000000 2.000000 0.000000 66.669922 -6.103516 25.126955 121.661148 -1.749930 -2.924021 38.808212 -62.322315 -42.923290 -70.702713 37.099152 21.583246 42.542637 -4.114274 -3.548344 -7.036998 1.494941 0.674581 -36.449802 -10.960892 -30.884346 12.776464 5.114533 0.556967 7.925642 -7.886882 30.994019 
-7.989007 48.866764 4.693374 -31.269531 23.896484 -169.863281 62.138836 -12.962486 -16.584522 -15.869142 4.658204 -8.779298 51.063168 8.107644 2.471410 -79.589844 -15.996093 48.457035 2.000000 -2.000000 0.000000 -59.746098 -34.374996 -55.800781 -71.139572 -0.891120 -2.585177 -60.585342 51.815804 -94.304558 -2.000000 2.000000 0.000000 67.216797 -6.357421 25.233295 121.836914 -1.759679 -2.924585 39.681671 -62.672668 -43.505981 -70.515915 37.068302 21.628357 42.737339 -3.818228 -3.561997 -7.460952 1.290701 0.588300 -35.904884 -10.924160 -31.331553 12.438082 5.047314 1.087196 8.263552 -7.954967 31.171297 
-8.121297 48.874638 4.562090 -31.474607 24.023439 -169.908127 62.145809 -12.863527 -16.738239 -15.869142 4.658204 -8.955078 51.063168 8.107644 2.471410 -79.423828 -16.035154 48.417973 2.000000 -2.000000 0.000000 -59.921871 -34.521484 -55.659832 -71.139572 -0.891120 -2.585177 -59.475040 52.305035 -92.892654 -2.000000 2.000000 0.000000 67.402344 -6.699219 25.654297 122.188461 -1.769428 -2.925148 40.436451 -62.802872 -44.516403 -70.522911 36.918175 21.609795 42.904823 -3.792050 -3.594826 -7.824120 1.440547 0.576302 -35.543137 -10.914006 -31.523396 12.251183 5.068554 1.034801 8.448048 -7.897069 31.345795 
-8.253594 48.898273 4.430823 -31.513670 24.179688 -169.820221 62.107845 -12.775049 -16.581408 -15.869142 4.658204 -9.130859 51.063168 8.107644 2.471410 -79.023438 -15.957031 48.408203 2.000000 -2.000000 0.000000 -60.126953 -34.677734 -55.791016 -71.318153 -1.072830 -2.682166 -58.536819 52.980419 -91.299988 -2.000000 2.000000 0.000000 67.402344 -7.011719 25.957031 122.364220 -1.779178 -2.925712 40.653557 -62.969154 -44.527512 -70.564285 36.745457 21.543146 43.052708 -3.918626 -3.653767 -8.127522 1.533794 0.699115 -35.184368 -10.887560 -31.567669 11.727494 5.077552 0.991881 8.806027 -7.571545 31.718275 
-8.373954 48.937664 4.296254 -31.513670 24.179688 -169.644440 62.097137 -12.688510 -16.731596 -15.869142 4.824219 -9.267578 51.063168 8.107644 2.471410 -78.808594 -15.849607 48.291019 2.000000 -2.000000 0.000000 -59.912109 -34.453129 -55.214848 -71.315361 -0.881370 -2.585744 -56.190350 53.572613 -89.760132 -2.000000 2.000000 0.000000 67.773438 -7.431641 25.965532 122.715492 -1.789491 -2.916530 41.048790 -63.054905 -44.924934 -70.594536 36.610020 21.305964 43.240276 -4.071977 -3.377686 -8.472417 1.057960 0.987754 -34.937870 -11.177865 -31.366728 11.023228 5.098503 0.906086 8.985430 -7.614991 32.243053 
-8.494309 48.945541 4.161698 -31.757811 24.277346 -169.634659 62.105824 -12.602009 -16.881817 -15.869142 4.824219 -9.443359 51.063168 8.107644 2.471410 -78.632813 -15.888670 48.229748 2.000000 -2.000000 0.000000 -59.707027 -34.111328 -54.566021 -71.492691 -0.962760 -2.639678 -53.786304 54.105785 -88.550278 -2.000000 2.000000 0.000000 67.949219 -7.958985 26.424429 123.237679 -1.809150 -3.083895 41.506237 -63.310322 -45.540558 -70.535614 36.140823 21.367491 43.266315 -3.948335 -3.682551 -8.849364 1.477246 0.910226 -34.667118 -10.927157 -31.096413 10.672951 5.126566 0.586798 9.334143 -7.525399 32.294796 
-8.620036 48.945541 4.046015 -31.796873 24.433596 -169.370956 62.113617 -12.506413 -17.028713 -15.869142 5.000000 -9.414062 51.063168 8.107644 2.471410 -78.417969 -15.771482 48.281246 2.000000 -2.000000 0.000000 -59.716793 -33.798832 -53.882389 -72.012077 -1.044713 -2.703537 -54.085831 53.915169 -88.736603 -2.000000 2.000000 0.000000 68.134766 -8.554688 26.328123 123.588943 -1.819462 -3.074714 42.797062 -63.249729 -46.678558 -70.535286 36.150173 21.184525 43.581886 -3.928495 -3.691211 -9.351800 1.375506 0.913118 -34.488110 -10.932999 -30.930191 10.487650 5.136636 0.425979 9.149459 -7.709545 32.630608 
-8.745766 48.945541 3.930343 -31.972654 24.384766 -169.253784 62.113617 -12.506413 -17.028713 -15.693360 4.990234 -9.560547 51.063168 8.107644 2.471410 -78.242188 -15.810546 48.229767 2.000000 -2.000000 0.000000 -59.355473 -33.378906 -53.300777 -72.536903 -0.844072 -2.617249 -55.111809 53.693237 -89.598404 -2.000000 2.000000 0.000000 68.496094 -9.111328 26.580486 124.115982 -1.839525 -3.066095 43.098969 -63.390869 -46.619854 -70.571930 35.990963 21.272188 43.779633 -3.762688 -3.645120 -9.633447 1.254263 0.600565 -34.218266 -11.152150 -31.458826 10.130022 5.103888 0.862051 9.309344 -7.321779 32.584225 
-8.852443 48.929794 3.837690 -32.021484 24.521486 -169.234238 62.094303 -12.337223 -17.034765 -15.683593 5.156250 -9.696387 51.063168 8.107644 2.471410 -77.871094 -15.888670 48.125004 2.000000 -2.000000 0.000000 -59.296875 -32.978516 -53.022892 -73.427696 -0.897344 -2.692376 -59.434708 52.714619 -92.816544 -2.000000 2.000000 0.000000 68.994148 -10.371094 26.355667 125.005974 -1.720279 -3.098313 44.752811 -63.142368 -47.535801 -70.748482 36.001560 21.413572 44.136002 -3.704281 -3.661020 -9.982126 0.993235 0.727792 -34.218262 -11.152148 -31.458824 10.130024 5.103884 0.862051 9.144724 -7.298431 32.984085 
-8.959135 48.914032 3.745034 -32.255859 24.619139 -169.224457 62.092999 -12.250808 -17.185112 -15.683593 5.156250 -9.872169 51.063168 8.107644 2.471410 -77.656250 -15.781249 48.173832 2.000000 -2.000000 0.000000 -58.925785 -32.597656 -52.724609 -74.466011 -0.698828 -2.811606 -63.450489 51.217461 -95.459679 -2.000000 2.000000 0.000000 69.570313 -11.884766 26.328123 125.872818 -1.919210 -3.041368 45.903221 -62.577477 -47.990047 -71.014809 35.907368 20.876699 44.505814 -3.838101 -3.568344 -10.334277 1.204417 0.704793 -34.381241 -11.323891 -31.208702 10.130474 5.104104 0.842580 9.120751 -7.610859 33.229134 
-9.058652 48.898273 3.666032 -32.304688 24.785158 -169.140625 62.099548 -12.152020 -17.339230 -15.673827 5.332032 -9.823311 51.063168 8.107644 2.471410 -77.480469 -15.810546 48.125000 2.000000 -2.000000 0.000000 -59.365231 -32.626953 -51.987686 -75.002647 -0.932245 -2.788287 -64.238480 51.163036 -96.338951 -2.000000 2.000000 0.000000 69.882813 -13.046876 26.081779 126.751129 -1.949586 -3.023568 47.002422 -62.001163 -48.590458 -71.195000 35.930134 20.796207 44.811050 -3.860395 -3.795619 -10.616420 1.402624 0.881402 -34.380817 -11.538716 -30.623400 10.134167 5.167187 0.379384 9.320940 -7.627716 33.422390 
